<?xml version="1.0" encoding="utf-8"?>
<!-- Generator: Adobe Illustrator 22.1.0, SVG Export Plug-In . SVG Version: 6.00 Build 0)  -->
<svg version="1.1" id="Capa_1" xmlns="http://www.w3.org/2000/svg" xmlns:xlink="http://www.w3.org/1999/xlink" x="0px" y="0px"
	 viewBox="0 0 126 126" style="enable-background:new 0 0 126 126;" xml:space="preserve">
<style type="text/css">
	.st0{fill:#D6DBDF;}
	.st1{fill:#B6E5FF;}
	.st2{fill:#EEFAFF;}
	.st3{fill:none;stroke:#FFFFFF;stroke-width:2;stroke-linecap:square;stroke-miterlimit:10;}
	.st4{fill:#A7ADB0;}
	.st5{fill:#85929E;}
	.st6{fill:none;stroke:#556080;stroke-width:3.844;stroke-linecap:round;stroke-miterlimit:10;}
	.st7{fill:#556080;}
	.st8{fill:#38454F;}
	.st9{fill:#FFFFFF;}
	.st10{fill:none;stroke:#38454F;stroke-width:3.844;stroke-linecap:round;stroke-miterlimit:10;}
	.st11{fill:#5D6D7E;}
	.st12{fill:#7B9BB1;}
	.st13{fill:none;stroke:#B6E5FF;stroke-width:2;stroke-miterlimit:10;}
</style>
<circle class="st0" cx="63" cy="63" r="63"/>
<g>
	<path class="st1" d="M113.5,81.9c-1.5,0-3,0.4-4.3,1c-1.7-8.7-10.1-14.4-18.7-12.7c-7.5,1.5-13,8-13,15.7c0,0.1,0,0.2,0,0.3
		c-4.3-1.1-8.6,1.4-9.8,5.7s1.4,8.6,5.7,9.8c0.7,0.2,1.4,0.3,2,0.3h38c5.5,0,10-4.5,10-10S119.1,81.9,113.5,81.9z"/>
	<path class="st2" d="M113.5,76.9c-1.5,0-3,0.4-4.3,1c-1.7-8.7-10.1-14.4-18.7-12.7c-7.5,1.5-13,8-13,15.7c0,0.1,0,0.2,0,0.3
		c-4.3-1.1-8.6,1.4-9.8,5.7s1.4,8.6,5.7,9.8c0.7,0.2,1.4,0.3,2,0.3h38c5.5,0,10-4.5,10-10S119.1,76.9,113.5,76.9z"/>
</g>
<circle class="st3" cx="93.9" cy="6.8" r="5"/>
<g>
	<path class="st1" d="M48.1,18.8c-1.5,0-3,0.4-4.3,1C42.1,11.1,33.7,5.5,25.1,7.1c-7.5,1.5-13,8-13,15.7c0,0.1,0,0.2,0,0.3
		c-4.3-1.1-8.6,1.4-9.8,5.7c-1.1,4.3,1.4,8.6,5.7,9.8c0.7,0.2,1.4,0.3,2,0.3h38c5.5,0,10-4.5,10-10S53.6,18.8,48.1,18.8z"/>
	<path class="st2" d="M48.1,13.8c-1.5,0-3,0.4-4.3,1C42.1,6.1,33.7,0.5,25.1,2.1c-7.5,1.5-13,8-13,15.7c0,0.1,0,0.2,0,0.3
		c-4.3-1.1-8.6,1.4-9.8,5.7c-1.1,4.3,1.4,8.6,5.7,9.8c0.7,0.2,1.4,0.3,2,0.3h38c5.5,0,10-4.5,10-10S53.6,13.8,48.1,13.8z"/>
</g>
<g>
	<path class="st4" d="M99.1,7.3H63v108h33.6h5.6c1.9,0,3.7-1.5,3.7-3.7V13.8C105.7,10.1,102.8,7.3,99.1,7.3z"/>
	<path class="st5" d="M26.7,7.3c-3.7,0-6.5,2.9-6.5,6.5v97.6c0,1.9,1.5,3.7,3.7,3.7H63V7.3H26.7z"/>
	<line class="st6" x1="83.4" y1="20.3" x2="87.2" y2="20.3"/>
	<rect x="27.6" y="57.4" class="st7" width="27.9" height="18.6"/>
	<rect x="70.3" y="48.2" class="st7" width="27.9" height="27.9"/>
	<rect x="27.6" y="70.5" class="st8" width="27.9" height="5.6"/>
	<rect x="33.2" y="57.4" class="st9" width="5.6" height="7.5"/>
	<rect x="44.4" y="57.4" class="st9" width="5.6" height="7.5"/>
	<line class="st10" x1="75.9" y1="55.7" x2="92.8" y2="55.7"/>
	<rect x="27.6" y="48.2" class="st8" width="27.9" height="9.2"/>
	<rect x="61.1" y="7.3" class="st11" width="3.7" height="108"/>
	<path class="st12" d="M87.8,117c0,1,0.8,1.7,1.7,1.7h8.8c1,0,1.7-0.8,1.7-1.7v-1.7H87.8V117z"/>
	<path class="st12" d="M25.9,117c0,1,0.8,1.7,1.7,1.7h8.8c1,0,1.7-0.8,1.7-1.7v-1.7H25.9V117z"/>
</g>
<circle class="st3" cx="7.1" cy="91.1" r="5"/>
<path class="st3" d="M120.8,29.2c-1.2-1.2-3.1-1.2-4.2,0c-0.6,0.6-0.9,1.3-0.9,2.1l0,0c0-1.7-1.3-3-3-3c-0.8,0-1.6,0.3-2.1,0.9
	c-1.1,1.1-1.1,2.9,0,4c0,0,0.1,0.1,0.1,0.1l5,6l5-6C121.8,32.3,121.9,30.4,120.8,29.2C120.8,29.2,120.8,29.2,120.8,29.2z"/>
<g>
	<line class="st13" x1="109.7" y1="107.6" x2="119.7" y2="107.6"/>
	<line class="st13" x1="114.7" y1="112.6" x2="114.7" y2="102.6"/>
</g>
</svg>
